<?xml version="1.0" standalone="no"?>
<svg viewBox="0 0 200 200" xmlns="http://www.w3.org/2000/svg">
  <path fill="#FF0066" d="M35.4,-54.9C48.1,-46.9,62.1,-40.8,72.1,-29.8C82,-18.7,87.8,-2.6,84.4,11.2C81,25.1,68.4,36.7,56,45.3C43.5,53.8,31.3,59.2,18.1,64.3C5,69.3,-9,73.8,-21.8,71.4C-34.5,68.9,-46,59.3,-53.4,47.9C-60.9,36.4,-64.3,23.1,-67.1,9.1C-69.9,-4.8,-72.1,-19.4,-68.9,-33.7C-65.8,-47.9,-57.3,-62,-45,-70.1C-32.6,-78.3,-16.3,-80.5,-2.5,-76.6C11.3,-72.8,22.7,-62.9,35.4,-54.9Z" transform="translate(100 100)" />
</svg>
