<svg width="1920" height="1080" viewBox="0 0 1920 1080" xmlns="http://www.w3.org/2000/svg"><rect width="1920" height="1080" fill="#a5a6a7"/><path d="M 0,1080 C 0,1080 0,180 0,180 C 101.6076923076923,183.62051282051283 203.2153846153846,187.24102564102563 327,179 C 450.7846153846154,170.75897435897437 596.7461538461539,150.65641025641025 695,141 C 793.2538461538461,131.34358974358975 843.8,132.13333333333333 936,163 C 1028.2,193.86666666666667 1162.0538461538463,254.81025641025641 1290,242 C 1417.9461538461537,229.18974358974359 1539.9846153846154,142.62564102564102 1644,120 C 1748.0153846153846,97.37435897435897 1834.0076923076922,138.6871794871795 1920,180 C 1920,180 1920,1080 1920,1080 Z" fill="#20374b" opacity="0.09999999999999999"/><path d="M 0,1080 C 0,1080 0,360 0,360 C 135.80512820512823,378.6538461538462 271.61025641025645,397.3076923076923 366,395 C 460.38974358974355,392.6923076923077 513.3641025641025,369.4230769230769 604,373 C 694.6358974358975,376.5769230769231 822.9333333333334,407 939,404 C 1055.0666666666666,401 1158.9025641025642,364.5769230769231 1276,338 C 1393.0974358974358,311.4230769230769 1523.4564102564104,294.6923076923077 1633,300 C 1742.5435897435896,305.3076923076923 1831.2717948717948,332.6538461538462 1920,360 C 1920,360 1920,1080 1920,1080 Z" fill="#20374b" opacity="0.19999999999999998"/><path d="M 0,1080 C 0,1080 0,540 0,540 C 109.84871794871793,499.28205128205127 219.69743589743587,458.56410256410254 323,479 C 426.30256410256413,499.43589743589746 523.0589743589743,581.025641025641 623,592 C 722.9410256410257,602.974358974359 826.0666666666666,543.3333333333333 938,516 C 1049.9333333333334,488.6666666666667 1170.674358974359,493.64102564102564 1277,513 C 1383.325641025641,532.3589743589744 1475.2358974358974,566.1025641025641 1580,573 C 1684.7641025641026,579.8974358974359 1802.3820512820512,559.948717948718 1920,540 C 1920,540 1920,1080 1920,1080 Z" fill="#20374b" opacity="0.3"/><path d="M 0,1080 C 0,1080 0,720 0,720 C 71.96410256410257,741.7769230769231 143.92820512820515,763.5538461538462 272,770 C 400.07179487179485,776.4461538461538 584.251282051282,767.5615384615386 689,760 C 793.748717948718,752.4384615384614 819.0666666666666,746.1999999999999 922,744 C 1024.9333333333334,741.8000000000001 1205.4820512820513,743.6384615384616 1323,752 C 1440.5179487179487,760.3615384615384 1495.0051282051281,775.2461538461539 1584,771 C 1672.9948717948719,766.7538461538461 1796.497435897436,743.376923076923 1920,720 C 1920,720 1920,1080 1920,1080 Z" fill="#20374b" opacity="0.39999999999999997"/><path d="M 0,1080 C 0,1080 0,900 0,900 C 108.14358974358973,882 216.28717948717946,864 335,868 C 453.71282051282054,872 582.9948717948718,898 691,911 C 799.0051282051282,924 885.7333333333333,924.0000000000001 966,923 C 1046.2666666666667,921.9999999999999 1120.071794871795,920.0000000000001 1235,931 C 1349.928205128205,941.9999999999999 1505.979487179487,966 1627,963 C 1748.020512820513,960 1834.0102564102565,930 1920,900 C 1920,900 1920,1080 1920,1080 Z" fill="#20374b" opacity="0.49999999999999994"/></svg>